ffmpeg started on 2025-05-05 at 11:04:02
Report written to "D:\Convert\FFMetrics\reports\psnr_report-6.txt"
Log level: 32
Command line:
ffmpeg -hide_banner -nostdin -i "G:\\\xc0\xed\xe8\xec\xe5\\\xce\xed\xe3\xee\xe8\xed\xe3\xe8\\!_35_\xcb\xe5\xf2\xee_2024\\JamClub-1\\\xdd\xf2\xee\xf2 \xec\xe8\xf0 \xf1\xeb\xe8\xf8\xea\xee\xec \xed\xe5\xf1\xee\xe2\xe5\xf0\xf8\xe5\xed\xe5\xed\\JamClub_Kono_Sekai_wa_Fukanzen_Sugiru_07_1080p_HEVC.mkv" -i "G:\\\xc0\xed\xe8\xec\xe5\\\xce\xed\xe3\xee\xe8\xed\xe3\xe8\\!_35_\xcb\xe5\xf2\xee_2024\\JamClub-1\\\xdd\xf2\xee\xf2 \xec\xe8\xf0 \xf1\xeb\xe8\xf8\xea\xee\xec \xed\xe5\xf1\xee\xe2\xe5\xf0\xf8\xe5\xed\xe5\xed\\JamClub_Kono_Sekai_wa_Fukanzen_Sugiru_07_1080p.mp4" -lavfi "[0:v]settb=AVTB,setpts=PTS-STARTPTS,format=pix_fmts=yuv420p10,fps=24000/1001,scale=1920:1080:flags=bicubic[main];[1:v]settb=AVTB,setpts=PTS-STARTPTS,format=pix_fmts=yuv420p,fps=24000/1001,scale=1920:1080:flags=bicubic[ref];[main][ref]psnr=eof_action=endall:stats_file='D\\:/Convert/FFMetrics/logs/psnr_logfile-6.txt'" -f null -
Input #0, matroska,webm, from 'G:\Аниме\Онгоинги\!_35_Лето_2024\JamClub-1\Этот мир слишком несовершенен\JamClub_Kono_Sekai_wa_Fukanzen_Sugiru_07_1080p_HEVC.mkv':
  Metadata:
    COMPATIBLE_BRANDS: isomiso2avc1mp41
    MAJOR_BRAND     : isom
    MINOR_VERSION   : 512
    ENCODER         : Lavf61.7.100
  Duration: 00:24:27.35, start: -0.001000, bitrate: 1563 kb/s
  Stream #0:0: Video: hevc (Main 10), yuv420p10le(tv, bt709, progressive), 1920x1080 [SAR 1:1 DAR 16:9], 23.98 fps, 23.98 tbr, 1k tbn (default)
      Metadata:
        HANDLER_NAME    : VideoHandler
        VENDOR_ID       : [0][0][0][0]
        ENCODER         : Lavc61.19.100 libx265
        BPS             : 1363776
        DURATION        : 00:24:27.215708333
        NUMBER_OF_FRAMES: 35178
        NUMBER_OF_BYTES : 250119227
        _STATISTICS_WRITING_APP: mkvpropedit v66.0.0 ('Josie') 64-bit
        _STATISTICS_WRITING_DATE_UTC: 2025-05-04 16:38:15
        _STATISTICS_TAGS: BPS DURATION NUMBER_OF_FRAMES NUMBER_OF_BYTES
  Stream #0:1(eng): Audio: aac (LC), 48000 Hz, stereo, fltp (default)
      Metadata:
        HANDLER_NAME    : SoundHandler
        VENDOR_ID       : [0][0][0][0]
        ENCODER         : Lavc61.19.100 aac
        BPS             : 195383
        DURATION        : 00:24:27.309000000
        NUMBER_OF_FRAMES: 68781
        NUMBER_OF_BYTES : 35836087
        _STATISTICS_WRITING_APP: mkvpropedit v66.0.0 ('Josie') 64-bit
        _STATISTICS_WRITING_DATE_UTC: 2025-05-04 16:38:15
        _STATISTICS_TAGS: BPS DURATION NUMBER_OF_FRAMES NUMBER_OF_BYTES
Input #1, mov,mp4,m4a,3gp,3g2,mj2, from 'G:\Аниме\Онгоинги\!_35_Лето_2024\JamClub-1\Этот мир слишком несовершенен\JamClub_Kono_Sekai_wa_Fukanzen_Sugiru_07_1080p.mp4':
  Metadata:
    major_brand     : isom
    minor_version   : 512
    compatible_brands: isomiso2avc1mp41
    encoder         : Lavf60.16.100
  Duration: 00:24:27.33, start: 0.000000, bitrate: 4171 kb/s
  Stream #1:0[0x1](und): Video: h264 (High) (avc1 / 0x31637661), yuv420p(progressive), 1920x1080 [SAR 1:1 DAR 16:9], 3973 kb/s, 23.98 fps, 23.98 tbr, 90k tbn (default)
      Metadata:
        handler_name    : VideoHandler
        vendor_id       : [0][0][0][0]
  Stream #1:1[0x2](eng): Audio: aac (LC) (mp4a / 0x6134706D), 48000 Hz, stereo, fltp, 191 kb/s (default)
      Metadata:
        handler_name    : SoundHandler
        vendor_id       : [0][0][0][0]
Stream mapping:
  Stream #0:0 (hevc) -> settb:default
  Stream #1:0 (h264) -> settb:default
  psnr:default -> Stream #0:0 (wrapped_avframe)
  Stream #0:1 -> #0:1 (aac (native) -> pcm_s16le (native))
Output #0, null, to 'pipe:':
  Metadata:
    COMPATIBLE_BRANDS: isomiso2avc1mp41
    MAJOR_BRAND     : isom
    MINOR_VERSION   : 512
    encoder         : Lavf61.7.100
  Stream #0:0: Video: wrapped_avframe, yuv420p10le(tv, bt709, progressive), 1920x1080 [SAR 1:1 DAR 16:9], q=2-31, 200 kb/s, 23.98 fps, 23.98 tbn
      Metadata:
        encoder         : Lavc61.19.100 wrapped_avframe
  Stream #0:1(eng): Audio: pcm_s16le, 48000 Hz, stereo, s16, 1536 kb/s (default)
      Metadata:
        HANDLER_NAME    : SoundHandler
        VENDOR_ID       : [0][0][0][0]
        _STATISTICS_TAGS: BPS DURATION NUMBER_OF_FRAMES NUMBER_OF_BYTES
        BPS             : 195383
        DURATION        : 00:24:27.309000000
        NUMBER_OF_FRAMES: 68781
        NUMBER_OF_BYTES : 35836087
        _STATISTICS_WRITING_APP: mkvpropedit v66.0.0 ('Josie') 64-bit
        _STATISTICS_WRITING_DATE_UTC: 2025-05-04 16:38:15
        encoder         : Lavc61.19.100 pcm_s16le
frame=  111 fps=0.0 q=-0.0 size=N/A time=00:00:04.62 bitrate=N/A speed=8.93x    frame=  266 fps=258 q=-0.0 size=N/A time=00:00:11.09 bitrate=N/A speed=10.8x    frame=  446 fps=288 q=-0.0 size=N/A time=00:00:18.60 bitrate=N/A speed=  12x    frame=  623 fps=300 q=-0.0 size=N/A time=00:00:25.98 bitrate=N/A speed=12.5x    frame=  841 fps=326 q=-0.0 size=N/A time=00:00:35.07 bitrate=N/A speed=13.6x    frame= 1048 fps=339 q=-0.0 size=N/A time=00:00:43.71 bitrate=N/A speed=14.1x    frame= 1273 fps=352 q=-0.0 size=N/A time=00:00:53.09 bitrate=N/A speed=14.7x    frame= 1490 fps=361 q=-0.0 size=N/A time=00:01:02.14 bitrate=N/A speed=15.1x    frame= 1723 fps=371 q=-0.0 size=N/A time=00:01:11.86 bitrate=N/A speed=15.5x    frame= 1952 fps=378 q=-0.0 size=N/A time=00:01:21.41 bitrate=N/A speed=15.8x    frame= 2198 fps=388 q=-0.0 size=N/A time=00:01:31.67 bitrate=N/A speed=16.2x    frame= 2448 fps=395 q=-0.0 size=N/A time=00:01:42.10 bitrate=N/A speed=16.5x    frame= 2694 fps=402 q=-0.0 size=N/A time=00:01:52.36 bitrate=N/A speed=16.8x    frame= 2946 fps=408 q=-0.0 size=N/A time=00:02:02.87 bitrate=N/A speed=  17x    frame= 3175 fps=411 q=-0.0 size=N/A time=00:02:12.42 bitrate=N/A speed=17.1x    frame= 3397 fps=412 q=-0.0 size=N/A time=00:02:21.68 bitrate=N/A speed=17.2x    frame= 3624 fps=414 q=-0.0 size=N/A time=00:02:31.15 bitrate=N/A speed=17.2x    frame= 3866 fps=416 q=-0.0 size=N/A time=00:02:41.24 bitrate=N/A speed=17.4x    frame= 4086 fps=417 q=-0.0 size=N/A time=00:02:50.42 bitrate=N/A speed=17.4x    frame= 4189 fps=406 q=-0.0 size=N/A time=00:02:54.71 bitrate=N/A speed=16.9x    frame= 4341 fps=401 q=-0.0 size=N/A time=00:03:01.05 bitrate=N/A speed=16.7x    frame= 4502 fps=397 q=-0.0 size=N/A time=00:03:07.77 bitrate=N/A speed=16.6x    frame= 4727 fps=398 q=-0.0 size=N/A time=00:03:17.15 bitrate=N/A speed=16.6x    frame= 4946 fps=400 q=-0.0 size=N/A time=00:03:26.28 bitrate=N/A speed=16.7x    frame= 5133 fps=398 q=-0.0 size=N/A time=00:03:34.08 bitrate=N/A speed=16.6x    frame= 5330 fps=398 q=-0.0 size=N/A time=00:03:42.30 bitrate=N/A speed=16.6x    frame= 5513 fps=396 q=-0.0 size=N/A time=00:03:49.93 bitrate=N/A speed=16.5x    frame= 5693 fps=394 q=-0.0 size=N/A time=00:03:57.44 bitrate=N/A speed=16.4x    frame= 5874 fps=393 q=-0.0 size=N/A time=00:04:04.99 bitrate=N/A speed=16.4x    frame= 6060 fps=392 q=-0.0 size=N/A time=00:04:12.75 bitrate=N/A speed=16.3x    frame= 6291 fps=393 q=-0.0 size=N/A time=00:04:22.38 bitrate=N/A speed=16.4x    frame= 6532 fps=396 q=-0.0 size=N/A time=00:04:32.43 bitrate=N/A speed=16.5x    frame= 6752 fps=397 q=-0.0 size=N/A time=00:04:41.61 bitrate=N/A speed=16.5x    frame= 6985 fps=398 q=-0.0 size=N/A time=00:04:51.33 bitrate=N/A speed=16.6x    frame= 7245 fps=401 q=-0.0 size=N/A time=00:05:02.17 bitrate=N/A speed=16.7x    frame= 7484 fps=403 q=-0.0 size=N/A time=00:05:12.14 bitrate=N/A speed=16.8x    frame= 7737 fps=405 q=-0.0 size=N/A time=00:05:22.69 bitrate=N/A speed=16.9x    frame= 8005 fps=408 q=-0.0 size=N/A time=00:05:33.87 bitrate=N/A speed=  17x    frame= 8256 fps=410 q=-0.0 size=N/A time=00:05:44.34 bitrate=N/A speed=17.1x    frame= 8487 fps=411 q=-0.0 size=N/A time=00:05:53.97 bitrate=N/A speed=17.2x    frame= 8696 fps=411 q=-0.0 size=N/A time=00:06:02.69 bitrate=N/A speed=17.2x    frame= 8930 fps=412 q=-0.0 size=N/A time=00:06:12.45 bitrate=N/A speed=17.2x    frame= 9106 fps=411 q=-0.0 size=N/A time=00:06:19.79 bitrate=N/A speed=17.1x    frame= 9340 fps=412 q=-0.0 size=N/A time=00:06:29.55 bitrate=N/A speed=17.2x    frame= 9579 fps=413 q=-0.0 size=N/A time=00:06:39.52 bitrate=N/A speed=17.2x    frame= 9817 fps=414 q=-0.0 size=N/A time=00:06:49.45 bitrate=N/A speed=17.3x    frame=10014 fps=413 q=-0.0 size=N/A time=00:06:57.66 bitrate=N/A speed=17.2x    frame=10255 fps=414 q=-0.0 size=N/A time=00:07:07.71 bitrate=N/A speed=17.3x    frame=10505 fps=416 q=-0.0 size=N/A time=00:07:18.14 bitrate=N/A speed=17.3x    frame=10737 fps=416 q=-0.0 size=N/A time=00:07:27.82 bitrate=N/A speed=17.4x    frame=10986 fps=418 q=-0.0 size=N/A time=00:07:38.20 bitrate=N/A speed=17.4x    frame=11237 fps=419 q=-0.0 size=N/A time=00:07:48.67 bitrate=N/A speed=17.5x    frame=11477 fps=420 q=-0.0 size=N/A time=00:07:58.68 bitrate=N/A speed=17.5x    frame=11734 fps=421 q=-0.0 size=N/A time=00:08:09.40 bitrate=N/A speed=17.6x    frame=11973 fps=422 q=-0.0 size=N/A time=00:08:19.37 bitrate=N/A speed=17.6x    frame=12186 fps=422 q=-0.0 size=N/A time=00:08:28.25 bitrate=N/A speed=17.6x    frame=12404 fps=422 q=-0.0 size=N/A time=00:08:37.35 bitrate=N/A speed=17.6x    frame=12596 fps=421 q=-0.0 size=N/A time=00:08:45.35 bitrate=N/A speed=17.6x    frame=12808 fps=421 q=-0.0 size=N/A time=00:08:54.20 bitrate=N/A speed=17.6x    frame=13024 fps=421 q=-0.0 size=N/A time=00:09:03.20 bitrate=N/A speed=17.6x    frame=13234 fps=421 q=-0.0 size=N/A time=00:09:11.96 bitrate=N/A speed=17.5x    frame=13451 fps=421 q=-0.0 size=N/A time=00:09:21.01 bitrate=N/A speed=17.5x    frame=13665 fps=421 q=-0.0 size=N/A time=00:09:29.94 bitrate=N/A speed=17.5x    frame=13881 fps=421 q=-0.0 size=N/A time=00:09:38.95 bitrate=N/A speed=17.5x    frame=14128 fps=421 q=-0.0 size=N/A time=00:09:49.25 bitrate=N/A speed=17.6x    frame=14353 fps=422 q=-0.0 size=N/A time=00:09:58.63 bitrate=N/A speed=17.6x    frame=14522 fps=420 q=-0.0 size=N/A time=00:10:05.68 bitrate=N/A speed=17.5x    frame=14765 fps=421 q=-0.0 size=N/A time=00:10:15.82 bitrate=N/A speed=17.6x    frame=15012 fps=422 q=-0.0 size=N/A time=00:10:26.12 bitrate=N/A speed=17.6x    frame=15225 fps=422 q=-0.0 size=N/A time=00:10:35.00 bitrate=N/A speed=17.6x    frame=15447 fps=422 q=-0.0 size=N/A time=00:10:44.26 bitrate=N/A speed=17.6x    frame=15677 fps=422 q=-0.0 size=N/A time=00:10:53.86 bitrate=N/A speed=17.6x    frame=15926 fps=423 q=-0.0 size=N/A time=00:11:04.24 bitrate=N/A speed=17.6x    frame=16125 fps=423 q=-0.0 size=N/A time=00:11:12.54 bitrate=N/A speed=17.6x    frame=16331 fps=422 q=-0.0 size=N/A time=00:11:21.13 bitrate=N/A speed=17.6x    frame=16558 fps=422 q=-0.0 size=N/A time=00:11:30.60 bitrate=N/A speed=17.6x    frame=16683 fps=420 q=-0.0 size=N/A time=00:11:35.82 bitrate=N/A speed=17.5x    frame=16891 fps=420 q=-0.0 size=N/A time=00:11:44.49 bitrate=N/A speed=17.5x    frame=17090 fps=419 q=-0.0 size=N/A time=00:11:52.79 bitrate=N/A speed=17.5x    frame=17292 fps=419 q=-0.0 size=N/A time=00:12:01.22 bitrate=N/A speed=17.5x    frame=17527 fps=420 q=-0.0 size=N/A time=00:12:11.02 bitrate=N/A speed=17.5x    frame=17759 fps=420 q=-0.0 size=N/A time=00:12:20.69 bitrate=N/A speed=17.5x    frame=17945 fps=419 q=-0.0 size=N/A time=00:12:28.45 bitrate=N/A speed=17.5x    frame=18165 fps=419 q=-0.0 size=N/A time=00:12:37.63 bitrate=N/A speed=17.5x    frame=18397 fps=420 q=-0.0 size=N/A time=00:12:47.30 bitrate=N/A speed=17.5x    frame=18667 fps=421 q=-0.0 size=N/A time=00:12:58.56 bitrate=N/A speed=17.5x    frame=18889 fps=421 q=-0.0 size=N/A time=00:13:07.82 bitrate=N/A speed=17.6x    frame=19135 fps=422 q=-0.0 size=N/A time=00:13:18.08 bitrate=N/A speed=17.6x    frame=19383 fps=422 q=-0.0 size=N/A time=00:13:28.43 bitrate=N/A speed=17.6x    frame=19627 fps=423 q=-0.0 size=N/A time=00:13:38.60 bitrate=N/A speed=17.6x    frame=19897 fps=424 q=-0.0 size=N/A time=00:13:49.87 bitrate=N/A speed=17.7x    frame=20149 fps=425 q=-0.0 size=N/A time=00:14:00.38 bitrate=N/A speed=17.7x    frame=20378 fps=425 q=-0.0 size=N/A time=00:14:09.93 bitrate=N/A speed=17.7x    frame=20630 fps=425 q=-0.0 size=N/A time=00:14:20.44 bitrate=N/A speed=17.7x    frame=20864 fps=426 q=-0.0 size=N/A time=00:14:30.20 bitrate=N/A speed=17.8x    frame=21107 fps=426 q=-0.0 size=N/A time=00:14:40.33 bitrate=N/A speed=17.8x    frame=21310 fps=426 q=-0.0 size=N/A time=00:14:48.80 bitrate=N/A speed=17.8x    frame=21541 fps=426 q=-0.0 size=N/A time=00:14:58.43 bitrate=N/A speed=17.8x    frame=21765 fps=426 q=-0.0 size=N/A time=00:15:07.78 bitrate=N/A speed=17.8x    frame=21960 fps=426 q=-0.0 size=N/A time=00:15:15.91 bitrate=N/A speed=17.8x    frame=22127 fps=425 q=-0.0 size=N/A time=00:15:22.88 bitrate=N/A speed=17.7x    frame=22293 fps=424 q=-0.0 size=N/A time=00:15:29.80 bitrate=N/A speed=17.7x    frame=22493 fps=423 q=-0.0 size=N/A time=00:15:38.14 bitrate=N/A speed=17.7x    frame=22666 fps=423 q=-0.0 size=N/A time=00:15:45.36 bitrate=N/A speed=17.6x    frame=22830 fps=422 q=-0.0 size=N/A time=00:15:52.20 bitrate=N/A speed=17.6x    frame=23016 fps=421 q=-0.0 size=N/A time=00:15:59.95 bitrate=N/A speed=17.6x    frame=23222 fps=421 q=-0.0 size=N/A time=00:16:08.55 bitrate=N/A speed=17.5x    frame=23444 fps=421 q=-0.0 size=N/A time=00:16:17.81 bitrate=N/A speed=17.6x    frame=23679 fps=421 q=-0.0 size=N/A time=00:16:27.61 bitrate=N/A speed=17.6x    frame=23870 fps=421 q=-0.0 size=N/A time=00:16:35.57 bitrate=N/A speed=17.5x    frame=24072 fps=420 q=-0.0 size=N/A time=00:16:44.00 bitrate=N/A speed=17.5x    frame=24320 fps=421 q=-0.0 size=N/A time=00:16:54.34 bitrate=N/A speed=17.6x    frame=24532 fps=421 q=-0.0 size=N/A time=00:17:03.18 bitrate=N/A speed=17.6x    frame=24761 fps=421 q=-0.0 size=N/A time=00:17:12.74 bitrate=N/A speed=17.6x    frame=24971 fps=421 q=-0.0 size=N/A time=00:17:21.49 bitrate=N/A speed=17.6x    frame=25221 fps=421 q=-0.0 size=N/A time=00:17:31.92 bitrate=N/A speed=17.6x    frame=25468 fps=422 q=-0.0 size=N/A time=00:17:42.22 bitrate=N/A speed=17.6x    frame=25725 fps=423 q=-0.0 size=N/A time=00:17:52.94 bitrate=N/A speed=17.6x    frame=25961 fps=423 q=-0.0 size=N/A time=00:18:02.79 bitrate=N/A speed=17.6x    frame=26205 fps=423 q=-0.0 size=N/A time=00:18:12.96 bitrate=N/A speed=17.7x    frame=26415 fps=423 q=-0.0 size=N/A time=00:18:21.72 bitrate=N/A speed=17.7x    frame=26648 fps=423 q=-0.0 size=N/A time=00:18:31.44 bitrate=N/A speed=17.7x    frame=26882 fps=424 q=-0.0 size=N/A time=00:18:41.20 bitrate=N/A speed=17.7x    frame=27105 fps=424 q=-0.0 size=N/A time=00:18:50.50 bitrate=N/A speed=17.7x    frame=27349 fps=424 q=-0.0 size=N/A time=00:19:00.68 bitrate=N/A speed=17.7x    frame=27599 fps=425 q=-0.0 size=N/A time=00:19:11.10 bitrate=N/A speed=17.7x    frame=27834 fps=425 q=-0.0 size=N/A time=00:19:20.90 bitrate=N/A speed=17.7x    frame=28084 fps=425 q=-0.0 size=N/A time=00:19:31.33 bitrate=N/A speed=17.7x    frame=28357 fps=426 q=-0.0 size=N/A time=00:19:42.72 bitrate=N/A speed=17.8x    frame=28580 fps=426 q=-0.0 size=N/A time=00:19:52.02 bitrate=N/A speed=17.8x    frame=28762 fps=426 q=-0.0 size=N/A time=00:19:59.61 bitrate=N/A speed=17.8x    frame=28976 fps=426 q=-0.0 size=N/A time=00:20:08.54 bitrate=N/A speed=17.8x    frame=29203 fps=426 q=-0.0 size=N/A time=00:20:18.00 bitrate=N/A speed=17.8x    frame=29406 fps=425 q=-0.0 size=N/A time=00:20:26.47 bitrate=N/A speed=17.7x    frame=29680 fps=426 q=-0.0 size=N/A time=00:20:37.90 bitrate=N/A speed=17.8x    frame=29913 fps=426 q=-0.0 size=N/A time=00:20:47.62 bitrate=N/A speed=17.8x    frame=30176 fps=427 q=-0.0 size=N/A time=00:20:58.59 bitrate=N/A speed=17.8x    frame=30423 fps=427 q=-0.0 size=N/A time=00:21:08.89 bitrate=N/A speed=17.8x    frame=30660 fps=428 q=-0.0 size=N/A time=00:21:18.77 bitrate=N/A speed=17.8x    frame=30881 fps=428 q=-0.0 size=N/A time=00:21:27.99 bitrate=N/A speed=17.8x    frame=31103 fps=428 q=-0.0 size=N/A time=00:21:37.25 bitrate=N/A speed=17.8x    frame=31335 fps=428 q=-0.0 size=N/A time=00:21:46.93 bitrate=N/A speed=17.8x    frame=31580 fps=428 q=-0.0 size=N/A time=00:21:57.14 bitrate=N/A speed=17.9x    frame=31826 fps=429 q=-0.0 size=N/A time=00:22:07.40 bitrate=N/A speed=17.9x    frame=32067 fps=429 q=-0.0 size=N/A time=00:22:17.46 bitrate=N/A speed=17.9x    frame=32265 fps=428 q=-0.0 size=N/A time=00:22:25.71 bitrate=N/A speed=17.9x    frame=32505 fps=429 q=-0.0 size=N/A time=00:22:35.72 bitrate=N/A speed=17.9x    frame=32739 fps=429 q=-0.0 size=N/A time=00:22:45.48 bitrate=N/A speed=17.9x    frame=32983 fps=429 q=-0.0 size=N/A time=00:22:55.66 bitrate=N/A speed=17.9x    frame=33186 fps=429 q=-0.0 size=N/A time=00:23:04.13 bitrate=N/A speed=17.9x    frame=33386 fps=429 q=-0.0 size=N/A time=00:23:12.47 bitrate=N/A speed=17.9x    frame=33600 fps=429 q=-0.0 size=N/A time=00:23:21.40 bitrate=N/A speed=17.9x    frame=33803 fps=428 q=-0.0 size=N/A time=00:23:29.86 bitrate=N/A speed=17.9x    frame=33976 fps=428 q=-0.0 size=N/A time=00:23:37.08 bitrate=N/A speed=17.8x    frame=34142 fps=427 q=-0.0 size=N/A time=00:23:44.00 bitrate=N/A speed=17.8x    frame=34351 fps=427 q=-0.0 size=N/A time=00:23:52.72 bitrate=N/A speed=17.8x    frame=34544 fps=427 q=-0.0 size=N/A time=00:24:00.77 bitrate=N/A speed=17.8x    frame=34757 fps=427 q=-0.0 size=N/A time=00:24:09.65 bitrate=N/A speed=17.8x    frame=34980 fps=427 q=-0.0 size=N/A time=00:24:18.95 bitrate=N/A speed=17.8x    [Parsed_psnr_10 @ 000001f768950540] PSNR y:47.525616 u:49.824897 v:50.364480 average:48.223707 min:37.098487 max:inf
[out#0/null @ 000001f752420ec0] video:15116KiB audio:275124KiB subtitle:0KiB other streams:0KiB global headers:0KiB muxing overhead: unknown
frame=35178 fps=426 q=-0.0 Lsize=N/A time=00:24:27.21 bitrate=N/A speed=17.8x    
